<?xml version="1.0" encoding="UTF-8"?>
<!DOCTYPE svg PUBLIC "-//W3C//DTD SVG 1.1//EN" "http://www.w3.org/Graphics/SVG/1.1/DTD/svg11.dtd">
<svg xmlns="http://www.w3.org/2000/svg" version="1.1" width="53px" height="83px" style="shape-rendering:geometricPrecision; text-rendering:geometricPrecision; image-rendering:optimizeQuality; fill-rule:evenodd; clip-rule:evenodd" xmlns:xlink="http://www.w3.org/1999/xlink">
<g><path style="opacity:0.268" fill="#fefffe" d="M 21.5,-0.5 C 22.1667,-0.5 22.8333,-0.5 23.5,-0.5C 24.8333,0.833333 26.1667,0.833333 27.5,-0.5C 28.5,-0.5 29.5,-0.5 30.5,-0.5C 36.8796,2.05332 41.0462,6.71998 43,13.5C 43.8252,24.0083 43.6585,34.3416 42.5,44.5C 41.8227,39.1991 41.3227,33.8657 41,28.5C 40.3333,29.1667 39.6667,29.8333 39,30.5C 38,29.1667 37,29.1667 36,30.5C 35.6258,29.5838 35.1258,28.7504 34.5,28C 31.2993,28.1434 28.6326,27.9767 26.5,27.5C 28.7687,25.1187 28.7687,22.6187 26.5,20C 27.9961,19.4926 29.1627,19.9926 30,21.5C 30.3661,19.5483 31.1995,17.8816 32.5,16.5C 25.0357,15.9484 17.3691,15.615 9.5,15.5C 9.34332,16.8734 9.50999,18.2068 10,19.5C 14.9724,15.4002 19.8058,15.5669 24.5,20C 24.8696,21.6097 24.2029,23.1097 22.5,24.5C 23.6405,25.4255 23.6405,26.2588 22.5,27C 23.3081,27.3076 23.9747,27.8076 24.5,28.5C 22.429,30.9301 22.0956,33.5967 23.5,36.5C 24.3078,34.5767 24.8078,32.5767 25,30.5C 25.4994,35.8229 25.666,41.1563 25.5,46.5C 22.8333,46.5 20.1667,46.5 17.5,46.5C 17.3433,47.8734 17.51,49.2068 18,50.5C 18.414,50.0426 18.914,49.7093 19.5,49.5C 20.2978,51.0777 20.7978,52.7444 21,54.5C 21.1397,51.9568 21.8063,49.6234 23,47.5C 22.0209,49.2785 22.3542,50.9452 24,52.5C 24.3333,50.8333 24.6667,49.1667 25,47.5C 25.3333,50.8333 25.6667,54.1667 26,57.5C 27.7508,58.5053 27.7508,59.1719 26,59.5C 25.0546,59.0946 24.3879,58.428 24,57.5C 21.6309,59.9075 19.1309,59.9075 16.5,57.5C 13.0879,55.255 10.5879,52.255 9,48.5C 7.42426,37.2253 7.09093,25.892 8,14.5C 9.78049,6.86801 14.2805,1.86801 21.5,-0.5 Z M 12.5,12.5 C 13.0768,11.2267 13.7435,11.2267 14.5,12.5C 14.0302,13.463 13.3635,13.463 12.5,12.5 Z M 32.5,16.5 C 34.3183,16.194 36.3183,16.194 38.5,16.5C 37.3984,17.1757 36.3984,17.8423 35.5,18.5C 34.2223,18.2178 33.2223,17.5511 32.5,16.5 Z M 39.5,15.5 C 42.3834,17.9822 42.0501,19.1489 38.5,19C 39.3366,17.9887 39.67,16.8221 39.5,15.5 Z M 35.5,18.5 C 36.6597,19.6114 37.993,20.6114 39.5,21.5C 37.7536,22.3953 35.9203,23.062 34,23.5C 32.9701,23.1639 32.4701,22.4972 32.5,21.5C 33.2216,21.0825 33.7216,20.4158 34,19.5C 35.1068,20.7119 35.6068,20.3786 35.5,18.5 Z M 13.5,20.5 C 15.9337,20.701 18.4337,20.701 21,20.5C 21.5,21 22,21.5 22.5,22C 19.9924,22.6544 17.8258,23.821 16,25.5C 15.5172,24.552 15.3505,23.552 15.5,22.5C 13.8008,22.6602 12.1341,22.4935 10.5,22C 11.7375,21.7679 12.7375,21.2679 13.5,20.5 Z M 9.5,30.5 C 10.3764,30.3691 11.0431,30.7025 11.5,31.5C 10.6986,33.3527 10.3653,35.0194 10.5,36.5C 9.53443,34.604 9.2011,32.604 9.5,30.5 Z M 35.5,34.5 C 37.9327,35.5477 37.9327,36.2144 35.5,36.5C 35.5,35.8333 35.5,35.1667 35.5,34.5 Z M 21.5,44.5 C 22.8005,43.1184 23.6339,41.4517 24,39.5C 25.0769,42.2617 24.2436,43.9283 21.5,44.5 Z M 9.5,41.5 C 10.9746,43.4095 12.9746,44.5762 15.5,45C 11.551,45.8068 11.551,46.3068 15.5,46.5C 15.6713,49.7973 15.0046,50.1306 13.5,47.5C 12.7492,48.376 12.2492,49.376 12,50.5C 10.0924,47.7935 9.25903,44.7935 9.5,41.5 Z M 16.5,41.5 C 17.766,42.0899 19.0993,42.5899 20.5,43C 18.8333,43.6667 17.1667,43.6667 15.5,43C 16.056,42.6174 16.3893,42.1174 16.5,41.5 Z"/></g>
<g><path style="opacity:0.39" fill="#fefffe" d="M 33.5,31.5 C 39.7872,31.9545 41.7872,35.1211 39.5,41C 36.1961,42.0419 34.0295,40.8753 33,37.5C 32.3224,35.4024 32.4891,33.4024 33.5,31.5 Z M 35.5,34.5 C 37.9327,35.5477 37.9327,36.2144 35.5,36.5C 35.5,35.8333 35.5,35.1667 35.5,34.5 Z"/></g>
<g><path style="opacity:0.419" fill="#fefffe" d="M 33.5,46.5 C 28.0936,47.2647 26.0936,44.9313 27.5,39.5C 32.5512,39.5339 34.5512,41.8673 33.5,46.5 Z"/></g>
<g><path style="opacity:0.116" fill="#fefffe" d="M 42.5,44.5 C 42.0315,53.4676 37.3648,58.3009 28.5,59C 35.4694,56.2007 40.1361,51.3674 42.5,44.5 Z"/></g>
<g><path style="opacity:0.419" fill="#fefffe" d="M 33.5,50.5 C 32.1667,49.1667 32.1667,47.8333 33.5,46.5C 35.3792,45.6586 37.3792,45.3253 39.5,45.5C 39.5123,49.4459 37.5123,51.1126 33.5,50.5 Z"/></g>
<g><path style="opacity:0.35" fill="#fefffe" d="M 33.5,50.5 C 33.5,51.8333 33.5,53.1667 33.5,54.5C 31.8333,54.5 30.1667,54.5 28.5,54.5C 28.3838,51.0897 30.0504,49.7564 33.5,50.5 Z"/></g>
<g><path style="opacity:0.193" fill="#fefffe" d="M 2.5,64.5 C 9.93952,63.7533 11.9395,66.5866 8.5,73C 6.16667,73.6667 3.83333,73.6667 1.5,73C 2.44379,70.2809 2.77712,67.4475 2.5,64.5 Z M 4.5,65.5 C 9.02386,67.3271 9.35719,69.6604 5.5,72.5C 4.52577,70.2573 4.19244,67.924 4.5,65.5 Z"/></g>
<g><path style="opacity:0.212" fill="#fefffe" d="M 13.5,64.5 C 14.4959,64.4142 15.3292,64.7476 16,65.5C 17.7175,68.0914 18.2175,70.7581 17.5,73.5C 16.5791,71.244 14.9124,70.244 12.5,70.5C 12.719,71.675 12.3857,72.675 11.5,73.5C 11.1667,73.1667 10.8333,72.8333 10.5,72.5C 12.0761,70.0207 13.0761,67.354 13.5,64.5 Z"/></g>
<g><path style="opacity:0.203" fill="#fefffe" d="M 29.5,65.5 C 28.5269,67.9479 28.1936,70.6146 28.5,73.5C 27.448,73.6495 26.448,73.4828 25.5,73C 26.5536,71.6124 26.7203,70.1124 26,68.5C 25.0192,71.6887 23.6859,72.022 22,69.5C 20.7052,70.8412 20.2052,72.1745 20.5,73.5C 19.1667,70.5 19.1667,67.5 20.5,64.5C 22.1965,65.3636 23.3632,66.6969 24,68.5C 24.956,67.4214 25.7894,66.2547 26.5,65C 27.7494,64.2599 28.7494,64.4265 29.5,65.5 Z"/></g>
<g><path style="opacity:0.205" fill="#fefffe" d="M 29.5,65.5 C 30.4232,64.6971 31.4232,64.5304 32.5,65C 32.1667,65.3333 31.8333,65.6667 31.5,66C 32.1667,68.3333 32.8333,70.6667 33.5,73C 32.1667,73.6667 30.8333,73.6667 29.5,73C 30.4496,70.5679 30.4496,68.0679 29.5,65.5 Z"/></g>
<g><path style="opacity:0.231" fill="#fefffe" d="M 33.5,64.5 C 34.5,64.5 35.5,64.5 36.5,64.5C 36.5,67.1667 36.5,69.8333 36.5,72.5C 38.3588,72.5391 39.6921,71.7058 40.5,70C 40.166,67.9986 40.166,66.1653 40.5,64.5C 41.6517,67.1062 41.8184,69.7728 41,72.5C 38.4684,74.789 36.1351,74.4557 34,71.5C 33.5034,69.1902 33.3367,66.8568 33.5,64.5 Z"/></g>
<g><path style="opacity:0.231" fill="#fefffe" d="M 42.5,64.5 C 44.7288,65.0553 46.3954,66.3886 47.5,68.5C 48.2811,67.2713 48.7811,65.938 49,64.5C 50.7273,67.3487 50.894,70.3487 49.5,73.5C 48.3044,73.1543 48.3044,72.6543 49.5,72C 48.7471,70.513 47.9138,70.3463 47,71.5C 46.0853,70.6721 45.4186,69.6721 45,68.5C 44.7978,70.2556 44.2978,71.9223 43.5,73.5C 42.5159,70.5719 42.1826,67.5719 42.5,64.5 Z"/></g>
<g><path style="opacity:0.212" fill="#fefffe" d="M -0.5,81.5 C -0.5,80.1667 -0.5,78.8333 -0.5,77.5C 0.984802,76.0651 2.31814,76.2317 3.5,78C 2.37598,78.2492 1.37598,78.7492 0.5,79.5C 1.60344,79.9976 2.60344,80.3309 3.5,80.5C 2.31116,81.4287 0.977822,81.762 -0.5,81.5 Z"/></g>
<g><path style="opacity:0.314" fill="#fefffe" d="M 10.5,76.5 C 14.8926,76.4568 15.2259,76.9568 11.5,78C 13.7092,78.957 13.5425,80.1236 11,81.5C 10.5065,79.8659 10.3398,78.1992 10.5,76.5 Z"/></g>
<g><path style="opacity:0.424" fill="#fefffe" d="M 15.5,76.5 C 18.5983,76.4125 18.9316,76.9125 16.5,78C 17.1667,78.3333 17.8333,78.6667 18.5,79C 17.3333,79.5 16.5,80.3333 16,81.5C 15.5065,79.8659 15.3398,78.1992 15.5,76.5 Z"/></g>
<g><path style="opacity:0.229" fill="#fefffe" d="M 20.5,76.5 C 23.5983,76.4125 23.9316,76.9125 21.5,78C 24.1667,78.6667 24.1667,79.3333 21.5,80C 22.1667,80.3333 22.8333,80.6667 23.5,81C 19.7071,81.4866 18.7071,79.9866 20.5,76.5 Z"/></g>
<g><path style="opacity:0.319" fill="#fefffe" d="M 24.5,76.5 C 26.1992,76.3398 27.8659,76.5065 29.5,77C 25.551,77.8068 25.551,78.3068 29.5,78.5C 29.5,79.5 29.5,80.5 29.5,81.5C 27.8333,81.5 26.1667,81.5 24.5,81.5C 24.5,79.8333 24.5,78.1667 24.5,76.5 Z"/></g>
<g><path style="opacity:0.198" fill="#fefffe" d="M 32.5,76.5 C 33.5,76.5 34.5,76.5 35.5,76.5C 35.33,77.8221 35.6634,78.9887 36.5,80C 35.4071,81.3654 34.0738,81.6987 32.5,81C 33.1667,80.6667 33.8333,80.3333 34.5,80C 33.0267,79.2904 32.3601,78.1238 32.5,76.5 Z"/></g>
<g><path style="opacity:0.217" fill="#fefffe" d="M 40.5,76.5 C 41.6129,77.9464 41.7796,79.6131 41,81.5C 40.2588,80.3595 39.4255,80.3595 38.5,81.5C 37.1667,80.1667 37.1667,78.8333 38.5,77.5C 39.944,78.981 40.6106,78.6477 40.5,76.5 Z"/></g>
<g><path style="opacity:0.204" fill="#fefffe" d="M 43.5,76.5 C 46.9103,76.3838 48.2436,78.0504 47.5,81.5C 43.0706,82.0826 41.7372,80.4159 43.5,76.5 Z M 44.5,77.5 C 46.332,78.1405 46.6653,79.1405 45.5,80.5C 44.6143,79.675 44.281,78.675 44.5,77.5 Z"/></g>
<g><path style="opacity:0.211" fill="#fefffe" d="M 52.5,76.5 C 52.5,77.5 52.5,78.5 52.5,79.5C 49.2093,82.4046 48.2093,81.738 49.5,77.5C 50.325,76.6143 51.325,76.281 52.5,76.5 Z"/></g>
<g><path style="opacity:0.305" fill="#fefffe" d="M 5.5,77.5 C 6.54773,79.9327 7.2144,79.9327 7.5,77.5C 10.1009,78.9225 9.93423,80.2558 7,81.5C 4.57164,80.7106 4.07164,79.3773 5.5,77.5 Z M 5.5,77.5 C 6.16667,77.5 6.83333,77.5 7.5,77.5C 7.2144,79.9327 6.54773,79.9327 5.5,77.5 Z"/></g>
</svg>
